<?xml version="1.0" encoding="UTF-8" standalone="no"?>
<svg
   width="32"
   height="32"
   version="1.1"
   id="svg4"
   sodipodi:docname="github.svg"
   inkscape:version="1.2.2 (1:1.2.2+202212051552+b0a8486541)"
   xmlns:inkscape="http://www.inkscape.org/namespaces/inkscape"
   xmlns:sodipodi="http://sodipodi.sourceforge.net/DTD/sodipodi-0.dtd"
   xmlns="http://www.w3.org/2000/svg"
   xmlns:svg="http://www.w3.org/2000/svg">
  <defs
     id="defs8" />
  <sodipodi:namedview
     id="namedview6"
     pagecolor="#ffffff"
     bordercolor="#000000"
     borderopacity="0.25"
     inkscape:showpageshadow="2"
     inkscape:pageopacity="0.0"
     inkscape:pagecheckerboard="0"
     inkscape:deskcolor="#d1d1d1"
     showgrid="false"
     inkscape:zoom="12.786848"
     inkscape:cx="35.700746"
     inkscape:cy="22.757759"
     inkscape:window-width="1916"
     inkscape:window-height="1054"
     inkscape:window-x="1920"
     inkscape:window-y="24"
     inkscape:window-maximized="1"
     inkscape:current-layer="svg4" />
  <path
     fill-rule="evenodd"
     clip-rule="evenodd"
     d="M 16.013239,0.26661697 C 7.1583317,0.26661697 2.2461384e-7,7.4777207 2.2461384e-7,16.398839 2.2461384e-7,23.529965 4.5865899,29.566315 10.949405,31.702768 c 0.795516,0.160611 1.08691,-0.347116 1.08691,-0.77421 0,-0.373994 -0.02622,-1.655932 -0.02622,-2.991625 C 7.5556,28.898632 6.6279898,26.013863 6.6279898,26.013863 5.9121239,24.14422 4.8514361,23.663698 4.8514361,23.663698 3.393482,22.675449 4.957636,22.675449 4.957636,22.675449 c 1.6172539,0.106856 2.4658697,1.655932 2.4658697,1.655932 1.431404,2.45702 3.7379733,1.762787 4.6659113,1.335365 0.132422,-1.041676 0.556894,-1.762787 1.007588,-2.163331 -3.5527793,-0.373994 -7.2907532,-1.762787 -7.2907532,-7.959419 0,-1.762787 0.6358882,-3.205008 1.6434761,-4.326663 -0.1589721,-0.400544 -0.715866,-2.0568029 0.1592998,-4.2735618 0,0 1.3520819,-0.4274218 4.4007393,1.6559317 a 15.395706,15.395706 0 0 1 4.003474,-0.5342773 c 1.352082,0 2.730386,0.1871609 4.003146,0.5342773 3.048986,-2.0833535 4.401068,-1.6559317 4.401068,-1.6559317 0.875165,2.2167589 0.317944,3.8730178 0.158972,4.2735618 1.034137,1.121655 1.643804,2.563876 1.643804,4.326663 0,6.196632 -3.737974,7.558547 -7.317304,7.959419 0.583444,0.5074 1.08691,1.468771 1.08691,2.991297 0,2.163331 -0.02622,3.899568 -0.02622,4.433518 0,0.427422 0.291722,0.935149 1.08691,0.774866 C 27.413338,29.565987 31.999928,23.529965 31.999928,16.398839 32.02615,7.4777207 24.841597,0.26661697 16.013239,0.26661697 Z"
     fill="#24292f"
     id="path2"
     style="stroke-width:1" />
</svg>
