<?xml version="1.0" encoding="UTF-8" standalone="no"?>
<svg
   id="Logo_FIXED"
   data-name="Logo — FIXED"
   viewBox="0 0 32 26.001656"
   version="1.1"
   width="32"
   height="26.001656"
   xmlns="http://www.w3.org/2000/svg"
   xmlns:svg="http://www.w3.org/2000/svg"
   xmlns:rdf="http://www.w3.org/1999/02/22-rdf-syntax-ns#"
   xmlns:cc="http://creativecommons.org/ns#"
   xmlns:dc="http://purl.org/dc/elements/1.1/">
  <defs
     id="defs4">
    <style
       id="style2">.cls-1{fill:none;}.cls-2{fill:#1da1f2;}</style>
  </defs>
  <title
     id="title6">Twitter_Logo_Blue</title>
  <path
     class="cls-2"
     d="m 10.06336,26.001656 c 12.07552,0 18.68032,-10.00448 18.68032,-18.6803199 0,-0.28416 0,-0.56704 -0.0192,-0.84864 A 13.35808,13.35808 0 0 0 32,3.0742961 13.10464,13.10464 0 0 1 28.22912,4.1072561 6.58816,6.58816 0 0 0 31.11552,0.47589406 13.15712,13.15712 0 0 1 26.94656,2.0694961 6.57152,6.57152 0 0 0 15.75808,8.0573361 18.63936,18.63936 0 0 1 2.2272,1.1978141 6.57024,6.57024 0 0 0 4.25984,9.9619761 6.51648,6.51648 0 0 1 1.28,9.1402161 c 0,0.0269 0,0.055 0,0.0832 a 6.56768,6.56768 0 0 0 5.2672,6.4358399 6.55488,6.55488 0 0 1 -2.96448,0.11264 6.5728,6.5728 0 0 0 6.13376,4.55936 13.17376,13.17376 0 0 1 -8.1536,2.816 A 13.36448,13.36448 0 0 1 0,23.052536 a 18.58688,18.58688 0 0 0 10.06336,2.944"
     id="path10"
     style="stroke-width:0.128" />
  <metadata
     id="metadata850">
    <rdf:RDF>
      <cc:Work
         rdf:about="">
        <dc:title>Twitter_Logo_Blue</dc:title>
      </cc:Work>
    </rdf:RDF>
  </metadata>
</svg>
