<?xml version="1.0" encoding="UTF-8" standalone="no"?>
<svg
   version="1.1"
   x="0px"
   y="0px"
   viewBox="0 0 31.999999 31.390082"
   xml:space="preserve"
   id="svg8"
   width="32"
   height="31.390083"
   xmlns="http://www.w3.org/2000/svg"
   xmlns:svg="http://www.w3.org/2000/svg"><defs
   id="defs12" />
<g
   fill="#3ea8ff"
   id="g6"
   transform="matrix(0.39091013,0,0,0.39091013,-1.1724264,-1.1727304)">
	<path
   class="st0"
   d="m 3.9,83.3 h 17 c 0.9,0 1.7,-0.5 2.2,-1.2 L 69.9,5.2 C 70.5,4.2 69.8,3 68.6,3 H 52.5 C 51.7,3 51,3.4 50.6,4.1 L 3.1,81.9 c -0.3,0.6 0.1,1.4 0.8,1.4 z"
   id="path2" />
	<path
   class="st0"
   d="M 62.5,82.1 84.6,46.6 c 0.7,-1.1 -0.1,-2.5 -1.4,-2.5 h -16 c -0.6,0 -1.2,0.3 -1.5,0.8 L 43,81.2 c -0.6,0.9 0.1,2.1 1.2,2.1 h 16.3 c 0.8,0 1.6,-0.4 2,-1.2 z"
   id="path4" />
</g>
</svg>
