<?xml version="1.0" encoding="UTF-8" standalone="no"?>
<svg
   viewBox="0 0 31.999998 31.328853"
   version="1.1"
   id="svg10"
   width="32"
   height="31.328854"
   xmlns="http://www.w3.org/2000/svg"
   xmlns:svg="http://www.w3.org/2000/svg">
  <defs
     id="defs4">
    <style
       id="style2">.cls-1{fill:#fff;fill-rule:evenodd;}</style>
  </defs>
  <g
     id="レイヤー_2"
     data-name="レイヤー 2"
     transform="matrix(0.98590391,0,0,0.98590391,0.01632334,8.2953091e-6)">
    <g
       id="Layer_1"
       data-name="Layer 1">
      <path
         class="cls-1"
         d="m 16.29,0 a 16.29,16.29 0 0 0 -5.15,31.75 c 0.82,0.15 1.11,-0.36 1.11,-0.79 0,-0.43 0,-1.41 0,-2.77 C 7.7,29.18 6.74,26 6.74,26 A 4.36,4.36 0 0 0 4.93,23.61 c -1.47,-1 0.12,-1 0.12,-1 a 3.43,3.43 0 0 1 2.49,1.68 3.48,3.48 0 0 0 4.74,1.36 3.46,3.46 0 0 1 1,-2.18 C 9.66,23.06 5.86,21.66 5.86,15.47 A 6.3,6.3 0 0 1 7.53,11.1 5.94,5.94 0 0 1 7.69,6.79 c 0,0 1.37,-0.44 4.48,1.67 a 15.41,15.41 0 0 1 8.16,0 C 23.44,6.35 24.8,6.79 24.8,6.79 a 5.91,5.91 0 0 1 0.2,4.28 6.3,6.3 0 0 1 1.67,4.37 c 0,6.26 -3.81,7.63 -7.44,8 a 3.85,3.85 0 0 1 1.11,3 c 0,2.18 0,3.94 0,4.47 0,0.53 0.29,0.94 1.12,0.78 A 16.29,16.29 0 0 0 16.29,0 Z"
         id="path6"
         style="fill:#000000" />
    </g>
  </g>
</svg>
